<svg width="1920" height="1080" viewBox="0 0 1920 1080" fill="none" xmlns="http://www.w3.org/2000/svg">
<g clip-path="url(#clip0_1_2)">
<rect width="1920" height="1080" fill="white"/>
<rect width="1120" height="280" rx="140" fill="#D9D9D9"/>
<path d="M68.25 199.5C78.1667 191.917 89.25 185.937 101.5 181.562C113.75 177.187 126.583 175 140 175C153.417 175 166.25 177.187 178.5 181.562C190.75 185.937 201.833 191.917 211.75 199.5C218.556 191.528 223.854 182.486 227.646 172.375C231.438 162.264 233.333 151.472 233.333 140C233.333 114.139 224.243 92.118 206.063 73.9375C187.882 55.7569 165.861 46.6667 140 46.6667C114.139 46.6667 92.1181 55.7569 73.9375 73.9375C55.757 92.118 46.6667 114.139 46.6667 140C46.6667 151.472 48.5625 162.264 52.3542 172.375C56.1458 182.486 61.4445 191.528 68.25 199.5ZM140 151.667C128.528 151.667 118.854 147.729 110.979 139.854C103.104 131.979 99.1667 122.306 99.1667 110.833C99.1667 99.3611 103.104 89.6875 110.979 81.8125C118.854 73.9375 128.528 70 140 70C151.472 70 161.146 73.9375 169.021 81.8125C176.896 89.6875 180.833 99.3611 180.833 110.833C180.833 122.306 176.896 131.979 169.021 139.854C161.146 147.729 151.472 151.667 140 151.667ZM140 256.667C123.861 256.667 108.694 253.604 94.5 247.479C80.3056 241.354 67.9583 233.042 57.4583 222.542C46.9583 212.042 38.6458 199.694 32.5208 185.5C26.3958 171.306 23.3333 156.139 23.3333 140C23.3333 123.861 26.3958 108.694 32.5208 94.5C38.6458 80.3055 46.9583 67.9583 57.4583 57.4583C67.9583 46.9583 80.3056 38.6458 94.5 32.5208C108.694 26.3958 123.861 23.3333 140 23.3333C156.139 23.3333 171.306 26.3958 185.5 32.5208C199.694 38.6458 212.042 46.9583 222.542 57.4583C233.042 67.9583 241.354 80.3055 247.479 94.5C253.604 108.694 256.667 123.861 256.667 140C256.667 156.139 253.604 171.306 247.479 185.5C241.354 199.694 233.042 212.042 222.542 222.542C212.042 233.042 199.694 241.354 185.5 247.479C171.306 253.604 156.139 256.667 140 256.667Z" fill="#1D1B20"/>
<path d="M968.333 151.667H898.333V128.333H968.333V58.3333H991.667V128.333H1061.67V151.667H991.667V221.667H968.333V151.667Z" fill="#1D1B20"/>
<path d="M280 233.333V200.958C280 194.347 281.653 188.222 284.958 182.583C288.264 176.944 292.833 172.667 298.667 169.75C301.389 168.389 304.014 167.125 306.542 165.958C309.264 164.792 312.083 163.722 315 162.75V233.333H280ZM326.667 151.667C316.944 151.667 308.681 148.264 301.875 141.458C295.069 134.653 291.667 126.389 291.667 116.667C291.667 106.944 295.069 98.6805 301.875 91.875C308.681 85.0694 316.944 81.6667 326.667 81.6667C336.389 81.6667 344.653 85.0694 351.458 91.875C358.264 98.6805 361.667 106.944 361.667 116.667C361.667 126.389 358.264 134.653 351.458 141.458C344.653 148.264 336.389 151.667 326.667 151.667ZM326.667 128.333C329.972 128.333 332.694 127.264 334.833 125.125C337.167 122.792 338.333 119.972 338.333 116.667C338.333 113.361 337.167 110.639 334.833 108.5C332.694 106.167 329.972 105 326.667 105C323.361 105 320.542 106.167 318.208 108.5C316.069 110.639 315 113.361 315 116.667C315 119.972 316.069 122.792 318.208 125.125C320.542 127.264 323.361 128.333 326.667 128.333ZM326.667 233.333V200.667C326.667 194.056 328.319 188.028 331.625 182.583C335.125 176.944 339.694 172.667 345.333 169.75C357.389 163.722 369.639 159.25 382.083 156.333C394.528 153.222 407.167 151.667 420 151.667C432.833 151.667 445.472 153.222 457.917 156.333C470.361 159.25 482.611 163.722 494.667 169.75C500.306 172.667 504.778 176.944 508.083 182.583C511.583 188.028 513.333 194.056 513.333 200.667V233.333H326.667ZM350 210H490V200.667C490 198.528 489.417 196.583 488.25 194.833C487.278 193.083 485.917 191.722 484.167 190.75C473.667 185.5 463.069 181.611 452.375 179.083C441.681 176.361 430.889 175 420 175C409.111 175 398.319 176.361 387.625 179.083C376.931 181.611 366.333 185.5 355.833 190.75C354.083 191.722 352.625 193.083 351.458 194.833C350.486 196.583 350 198.528 350 200.667V210ZM420 140C407.167 140 396.181 135.431 387.042 126.292C377.903 117.153 373.333 106.167 373.333 93.3333C373.333 80.5 377.903 69.5139 387.042 60.375C396.181 51.2361 407.167 46.6667 420 46.6667C432.833 46.6667 443.819 51.2361 452.958 60.375C462.097 69.5139 466.667 80.5 466.667 93.3333C466.667 106.167 462.097 117.153 452.958 126.292C443.819 135.431 432.833 140 420 140ZM420 116.667C426.417 116.667 431.861 114.431 436.333 109.958C441 105.292 443.333 99.75 443.333 93.3333C443.333 86.9167 441 81.4722 436.333 77C431.861 72.3333 426.417 70 420 70C413.583 70 408.042 72.3333 403.375 77C398.903 81.4722 396.667 86.9167 396.667 93.3333C396.667 99.75 398.903 105.292 403.375 109.958C408.042 114.431 413.583 116.667 420 116.667ZM513.333 151.667C503.611 151.667 495.347 148.264 488.542 141.458C481.736 134.653 478.333 126.389 478.333 116.667C478.333 106.944 481.736 98.6805 488.542 91.875C495.347 85.0694 503.611 81.6667 513.333 81.6667C523.056 81.6667 531.319 85.0694 538.125 91.875C544.931 98.6805 548.333 106.944 548.333 116.667C548.333 126.389 544.931 134.653 538.125 141.458C531.319 148.264 523.056 151.667 513.333 151.667ZM513.333 128.333C516.639 128.333 519.361 127.264 521.5 125.125C523.833 122.792 525 119.972 525 116.667C525 113.361 523.833 110.639 521.5 108.5C519.361 106.167 516.639 105 513.333 105C510.028 105 507.208 106.167 504.875 108.5C502.736 110.639 501.667 113.361 501.667 116.667C501.667 119.972 502.736 122.792 504.875 125.125C507.208 127.264 510.028 128.333 513.333 128.333ZM525 233.333V162.75C527.917 163.722 530.639 164.792 533.167 165.958C535.889 167.125 538.611 168.389 541.333 169.75C547.167 172.667 551.736 176.944 555.042 182.583C558.347 188.222 560 194.347 560 200.958V233.333H525Z" fill="#1D1B20"/>
<path d="M606.667 233.333C600.25 233.333 594.757 231.049 590.187 226.479C585.618 221.91 583.333 216.417 583.333 210V70C583.333 63.5833 585.618 58.0903 590.187 53.5208C594.757 48.9514 600.25 46.6667 606.667 46.6667H793.333C799.75 46.6667 805.243 48.9514 809.812 53.5208C814.382 58.0903 816.667 63.5833 816.667 70V210C816.667 216.417 814.382 221.91 809.812 226.479C805.243 231.049 799.75 233.333 793.333 233.333H606.667ZM700 151.667L606.667 93.3333V210H793.333V93.3333L700 151.667ZM700 128.333L793.333 70H606.667L700 128.333ZM606.667 93.3333V70V210V93.3333Z" fill="#1D1B20"/>
<g clip-path="url(#clip1_1_2)">
<rect x="1120" width="800" height="1080" rx="90" fill="#5DB7DD"/>
<path d="M1295.33 81.6406V89H1259.19V81.6406H1295.33ZM1261.02 20.75V89H1251.97V20.75H1261.02ZM1290.55 50.0938V57.4531H1259.19V50.0938H1290.55ZM1294.86 20.75V28.1562H1259.19V20.75H1294.86ZM1311.08 38.2812L1322.19 56.75L1333.44 38.2812H1343.61L1327.02 63.3125L1344.12 89H1334.09L1322.38 69.9688L1310.66 89H1300.58L1317.64 63.3125L1301.09 38.2812H1311.08ZM1382.75 80.3281V54.2188C1382.75 52.2188 1382.34 50.4844 1381.53 49.0156C1380.75 47.5156 1379.56 46.3594 1377.97 45.5469C1376.38 44.7344 1374.41 44.3281 1372.06 44.3281C1369.88 44.3281 1367.95 44.7031 1366.3 45.4531C1364.67 46.2031 1363.39 47.1875 1362.45 48.4062C1361.55 49.625 1361.09 50.9375 1361.09 52.3438H1352.42C1352.42 50.5312 1352.89 48.7344 1353.83 46.9531C1354.77 45.1719 1356.11 43.5625 1357.86 42.125C1359.64 40.6562 1361.77 39.5 1364.23 38.6562C1366.73 37.7812 1369.52 37.3438 1372.58 37.3438C1376.27 37.3438 1379.52 37.9688 1382.33 39.2188C1385.17 40.4688 1387.39 42.3594 1388.98 44.8906C1390.61 47.3906 1391.42 50.5312 1391.42 54.3125V77.9375C1391.42 79.625 1391.56 81.4219 1391.84 83.3281C1392.16 85.2344 1392.61 86.875 1393.2 88.25V89H1384.16C1383.72 88 1383.38 86.6719 1383.12 85.0156C1382.88 83.3281 1382.75 81.7656 1382.75 80.3281ZM1384.25 58.25L1384.34 64.3438H1375.58C1373.11 64.3438 1370.91 64.5469 1368.97 64.9531C1367.03 65.3281 1365.41 65.9062 1364.09 66.6875C1362.78 67.4688 1361.78 68.4531 1361.09 69.6406C1360.41 70.7969 1360.06 72.1562 1360.06 73.7188C1360.06 75.3125 1360.42 76.7656 1361.14 78.0781C1361.86 79.3906 1362.94 80.4375 1364.38 81.2188C1365.84 81.9688 1367.64 82.3438 1369.77 82.3438C1372.42 82.3438 1374.77 81.7812 1376.8 80.6562C1378.83 79.5312 1380.44 78.1562 1381.62 76.5312C1382.84 74.9062 1383.5 73.3281 1383.59 71.7969L1387.3 75.9688C1387.08 77.2812 1386.48 78.7344 1385.52 80.3281C1384.55 81.9219 1383.25 83.4531 1381.62 84.9219C1380.03 86.3594 1378.12 87.5625 1375.91 88.5312C1373.72 89.4688 1371.25 89.9375 1368.5 89.9375C1365.06 89.9375 1362.05 89.2656 1359.45 87.9219C1356.89 86.5781 1354.89 84.7812 1353.45 82.5312C1352.05 80.25 1351.34 77.7031 1351.34 74.8906C1351.34 72.1719 1351.88 69.7812 1352.94 67.7188C1354 65.625 1355.53 63.8906 1357.53 62.5156C1359.53 61.1094 1361.94 60.0469 1364.75 59.3281C1367.56 58.6094 1370.7 58.25 1374.17 58.25H1384.25ZM1413.69 48.3594V89H1404.97V38.2812H1413.22L1413.69 48.3594ZM1411.91 61.7188L1407.88 61.5781C1407.91 58.1094 1408.36 54.9062 1409.23 51.9688C1410.11 49 1411.41 46.4219 1413.12 44.2344C1414.84 42.0469 1416.98 40.3594 1419.55 39.1719C1422.11 37.9531 1425.08 37.3438 1428.45 37.3438C1430.83 37.3438 1433.02 37.6875 1435.02 38.375C1437.02 39.0312 1438.75 40.0781 1440.22 41.5156C1441.69 42.9531 1442.83 44.7969 1443.64 47.0469C1444.45 49.2969 1444.86 52.0156 1444.86 55.2031V89H1436.19V55.625C1436.19 52.9688 1435.73 50.8438 1434.83 49.25C1433.95 47.6562 1432.7 46.5 1431.08 45.7812C1429.45 45.0312 1427.55 44.6562 1425.36 44.6562C1422.8 44.6562 1420.66 45.1094 1418.94 46.0156C1417.22 46.9219 1415.84 48.1719 1414.81 49.7656C1413.78 51.3594 1413.03 53.1875 1412.56 55.25C1412.12 57.2812 1411.91 59.4375 1411.91 61.7188ZM1444.77 56.9375L1438.95 58.7188C1438.98 55.9375 1439.44 53.2656 1440.31 50.7031C1441.22 48.1406 1442.52 45.8594 1444.2 43.8594C1445.92 41.8594 1448.03 40.2812 1450.53 39.125C1453.03 37.9375 1455.89 37.3438 1459.11 37.3438C1461.83 37.3438 1464.23 37.7031 1466.33 38.4219C1468.45 39.1406 1470.23 40.25 1471.67 41.75C1473.14 43.2188 1474.25 45.1094 1475 47.4219C1475.75 49.7344 1476.12 52.4844 1476.12 55.6719V89H1467.41V55.5781C1467.41 52.7344 1466.95 50.5312 1466.05 48.9688C1465.17 47.375 1463.92 46.2656 1462.3 45.6406C1460.7 44.9844 1458.8 44.6562 1456.58 44.6562C1454.67 44.6562 1452.98 44.9844 1451.52 45.6406C1450.05 46.2969 1448.81 47.2031 1447.81 48.3594C1446.81 49.4844 1446.05 50.7812 1445.52 52.25C1445.02 53.7188 1444.77 55.2812 1444.77 56.9375ZM1497.92 48.0312V108.5H1489.2V38.2812H1497.17L1497.92 48.0312ZM1532.09 63.2188V64.2031C1532.09 67.8906 1531.66 71.3125 1530.78 74.4688C1529.91 77.5938 1528.62 80.3125 1526.94 82.625C1525.28 84.9375 1523.23 86.7344 1520.8 88.0156C1518.36 89.2969 1515.56 89.9375 1512.41 89.9375C1509.19 89.9375 1506.34 89.4062 1503.88 88.3438C1501.41 87.2812 1499.31 85.7344 1497.59 83.7031C1495.88 81.6719 1494.5 79.2344 1493.47 76.3906C1492.47 73.5469 1491.78 70.3438 1491.41 66.7812V61.5312C1491.78 57.7812 1492.48 54.4219 1493.52 51.4531C1494.55 48.4844 1495.91 45.9531 1497.59 43.8594C1499.31 41.7344 1501.39 40.125 1503.83 39.0312C1506.27 37.9062 1509.08 37.3438 1512.27 37.3438C1515.45 37.3438 1518.28 37.9688 1520.75 39.2188C1523.22 40.4375 1525.3 42.1875 1526.98 44.4688C1528.67 46.75 1529.94 49.4844 1530.78 52.6719C1531.66 55.8281 1532.09 59.3438 1532.09 63.2188ZM1523.38 64.2031V63.2188C1523.38 60.6875 1523.11 58.3125 1522.58 56.0938C1522.05 53.8438 1521.22 51.875 1520.09 50.1875C1519 48.4688 1517.59 47.125 1515.88 46.1562C1514.16 45.1562 1512.11 44.6562 1509.73 44.6562C1507.55 44.6562 1505.64 45.0312 1504.02 45.7812C1502.42 46.5312 1501.06 47.5469 1499.94 48.8281C1498.81 50.0781 1497.89 51.5156 1497.17 53.1406C1496.48 54.7344 1495.97 56.3906 1495.62 58.1094V70.25C1496.25 72.4375 1497.12 74.5 1498.25 76.4375C1499.38 78.3438 1500.88 79.8906 1502.75 81.0781C1504.62 82.2344 1506.98 82.8125 1509.83 82.8125C1512.17 82.8125 1514.19 82.3281 1515.88 81.3594C1517.59 80.3594 1519 79 1520.09 77.2812C1521.22 75.5625 1522.05 73.5938 1522.58 71.375C1523.11 69.125 1523.38 66.7344 1523.38 64.2031ZM1552.58 17V89H1543.86V17H1552.58ZM1587.55 89.9375C1584.02 89.9375 1580.81 89.3438 1577.94 88.1562C1575.09 86.9375 1572.64 85.2344 1570.58 83.0469C1568.55 80.8594 1566.98 78.2656 1565.89 75.2656C1564.8 72.2656 1564.25 68.9844 1564.25 65.4219V63.4531C1564.25 59.3281 1564.86 55.6562 1566.08 52.4375C1567.3 49.1875 1568.95 46.4375 1571.05 44.1875C1573.14 41.9375 1575.52 40.2344 1578.17 39.0781C1580.83 37.9219 1583.58 37.3438 1586.42 37.3438C1590.05 37.3438 1593.17 37.9688 1595.8 39.2188C1598.45 40.4688 1600.62 42.2188 1602.31 44.4688C1604 46.6875 1605.25 49.3125 1606.06 52.3438C1606.88 55.3438 1607.28 58.625 1607.28 62.1875V66.0781H1569.41V59H1598.61V58.3438C1598.48 56.0938 1598.02 53.9062 1597.2 51.7812C1596.42 49.6562 1595.17 47.9062 1593.45 46.5312C1591.73 45.1562 1589.39 44.4688 1586.42 44.4688C1584.45 44.4688 1582.64 44.8906 1580.98 45.7344C1579.33 46.5469 1577.91 47.7656 1576.72 49.3906C1575.53 51.0156 1574.61 53 1573.95 55.3438C1573.3 57.6875 1572.97 60.3906 1572.97 63.4531V65.4219C1572.97 67.8281 1573.3 70.0938 1573.95 72.2188C1574.64 74.3125 1575.62 76.1562 1576.91 77.75C1578.22 79.3438 1579.8 80.5938 1581.64 81.5C1583.52 82.4062 1585.64 82.8594 1588.02 82.8594C1591.08 82.8594 1593.67 82.2344 1595.8 80.9844C1597.92 79.7344 1599.78 78.0625 1601.38 75.9688L1606.62 80.1406C1605.53 81.7969 1604.14 83.375 1602.45 84.875C1600.77 86.375 1598.69 87.5938 1596.22 88.5312C1593.78 89.4688 1590.89 89.9375 1587.55 89.9375ZM1662.45 38.2812V44.9375H1635.03V38.2812H1662.45ZM1644.31 25.9531H1652.98V76.4375C1652.98 78.1562 1653.25 79.4531 1653.78 80.3281C1654.31 81.2031 1655 81.7812 1655.84 82.0625C1656.69 82.3438 1657.59 82.4844 1658.56 82.4844C1659.28 82.4844 1660.03 82.4219 1660.81 82.2969C1661.62 82.1406 1662.23 82.0156 1662.64 81.9219L1662.69 89C1662 89.2188 1661.09 89.4219 1659.97 89.6094C1658.88 89.8281 1657.55 89.9375 1655.98 89.9375C1653.86 89.9375 1651.91 89.5156 1650.12 88.6719C1648.34 87.8281 1646.92 86.4219 1645.86 84.4531C1644.83 82.4531 1644.31 79.7656 1644.31 76.3906V25.9531ZM1693.67 89.9375C1690.14 89.9375 1686.94 89.3438 1684.06 88.1562C1681.22 86.9375 1678.77 85.2344 1676.7 83.0469C1674.67 80.8594 1673.11 78.2656 1672.02 75.2656C1670.92 72.2656 1670.38 68.9844 1670.38 65.4219V63.4531C1670.38 59.3281 1670.98 55.6562 1672.2 52.4375C1673.42 49.1875 1675.08 46.4375 1677.17 44.1875C1679.27 41.9375 1681.64 40.2344 1684.3 39.0781C1686.95 37.9219 1689.7 37.3438 1692.55 37.3438C1696.17 37.3438 1699.3 37.9688 1701.92 39.2188C1704.58 40.4688 1706.75 42.2188 1708.44 44.4688C1710.12 46.6875 1711.38 49.3125 1712.19 52.3438C1713 55.3438 1713.41 58.625 1713.41 62.1875V66.0781H1675.53V59H1704.73V58.3438C1704.61 56.0938 1704.14 53.9062 1703.33 51.7812C1702.55 49.6562 1701.3 47.9062 1699.58 46.5312C1697.86 45.1562 1695.52 44.4688 1692.55 44.4688C1690.58 44.4688 1688.77 44.8906 1687.11 45.7344C1685.45 46.5469 1684.03 47.7656 1682.84 49.3906C1681.66 51.0156 1680.73 53 1680.08 55.3438C1679.42 57.6875 1679.09 60.3906 1679.09 63.4531V65.4219C1679.09 67.8281 1679.42 70.0938 1680.08 72.2188C1680.77 74.3125 1681.75 76.1562 1683.03 77.75C1684.34 79.3438 1685.92 80.5938 1687.77 81.5C1689.64 82.4062 1691.77 82.8594 1694.14 82.8594C1697.2 82.8594 1699.8 82.2344 1701.92 80.9844C1704.05 79.7344 1705.91 78.0625 1707.5 75.9688L1712.75 80.1406C1711.66 81.7969 1710.27 83.375 1708.58 84.875C1706.89 86.375 1704.81 87.5938 1702.34 88.5312C1699.91 89.4688 1697.02 89.9375 1693.67 89.9375ZM1729.39 38.2812L1740.5 56.75L1751.75 38.2812H1761.92L1745.33 63.3125L1762.44 89H1752.41L1740.69 69.9688L1728.97 89H1718.89L1735.95 63.3125L1719.41 38.2812H1729.39ZM1792.39 38.2812V44.9375H1764.97V38.2812H1792.39ZM1774.25 25.9531H1782.92V76.4375C1782.92 78.1562 1783.19 79.4531 1783.72 80.3281C1784.25 81.2031 1784.94 81.7812 1785.78 82.0625C1786.62 82.3438 1787.53 82.4844 1788.5 82.4844C1789.22 82.4844 1789.97 82.4219 1790.75 82.2969C1791.56 82.1406 1792.17 82.0156 1792.58 81.9219L1792.62 89C1791.94 89.2188 1791.03 89.4219 1789.91 89.6094C1788.81 89.8281 1787.48 89.9375 1785.92 89.9375C1783.8 89.9375 1781.84 89.5156 1780.06 88.6719C1778.28 87.8281 1776.86 86.4219 1775.8 84.4531C1774.77 82.4531 1774.25 79.7656 1774.25 76.3906V25.9531Z" fill="black"/>
</g>
</g>
<defs>
<clipPath id="clip0_1_2">
<rect width="1920" height="1080" fill="white"/>
</clipPath>
<clipPath id="clip1_1_2">
<rect width="800" height="1080" fill="white" transform="translate(1120)"/>
</clipPath>
</defs>
</svg>
